# xmcd
#
# Track frame offsets: 
#        150
#        21923
#        39231
#        54517
#        72875
#        89429
#        107778
#        127203
#        141435
#        159971
#        179745
#        200272
#        213123
#        229752
#
# Disc length: 3288 seconds
#
# Revision: 2
# Processed by: cddbd v1.5.2PL0 Copyright (c) Steve Scherf et al.
# Submitted via: ExactAudioCopy v1.0b1
#
DISCID=c70cd60e
DTITLE=Oliver Frank - Jetzt oder nie
DYEAR=2011
DGENRE=Schlager Fox
TTITLE0=Amore Per Sempre - Jetzt oder nie (Italo Maxi DJ-Mix)
TTITLE1=Wie ein Engel (Disco Mix)
TTITLE2=Mach mich nicht schwach
TTITLE3=Unser Sommer der Liebe (Playa DJ-Mix)
TTITLE4=Manchmal
TTITLE5=Wieder ganz allein (DJ Domic Fox Mix)
TTITLE6=Zimmer 104
TTITLE7=Wenn Du einen Helden suchst
TTITLE8=Scommetto Su Di Noi (Ich wette auf Dich und mich) (Extended Ma
TTITLE8=xi Version)
TTITLE9=Nochmal von vorn
TTITLE10=Denn ich bin ihr Mann (Basic Music DJ Maxi-Mix)
TTITLE11=Hätt' ich die Wahl
TTITLE12=Liebe im Taxi (DJ Torsten Matschke Club-Mix)
TTITLE13=Unverbesserlich
EXTD=
EXTT0=
EXTT1=
EXTT2=
EXTT3=
EXTT4=
EXTT5=
EXTT6=
EXTT7=
EXTT8=
EXTT9=
EXTT10=
EXTT11=
EXTT12=
EXTT13=
PLAYORDER=
